<?xml version="1.0" encoding="utf-8"?>
<!-- Generator: Adobe Illustrator 16.0.0, SVG Export Plug-In . SVG Version: 6.00 Build 0)  -->
<!DOCTYPE svg PUBLIC "-//W3C//DTD SVG 1.1//EN" "http://www.w3.org/Graphics/SVG/1.1/DTD/svg11.dtd">
<svg version="1.1" id="Layer_1" xmlns:sketch="http://www.bohemiancoding.com/sketch/ns"
	 xmlns="http://www.w3.org/2000/svg" xmlns:xlink="http://www.w3.org/1999/xlink" x="0px" y="0px" width="157.07px"
	 height="157.069px" viewBox="-48.586 -48.546 157.07 157.069" enable-background="new -48.586 -48.546 157.07 157.069"
	 xml:space="preserve">
<title></title>
<desc></desc>
<g id="slice" transform="translate(-600.000000, 0.000000)">
</g>
<g id="linkedin" transform="translate(16.000000, 17.000000)">
	<path d="M-0.464,39.855V0.351h-12.209v39.504H-0.464z M-0.464-13.651c-0.072-3.536-2.43-6.227-6.257-6.227
		c-3.829,0-6.33,2.691-6.33,6.227c0,3.458,2.429,6.228,6.184,6.228h0.073C-2.894-7.424-0.464-10.193-0.464-13.651z M19.454,39.855
		V17.348c0-1.203,0.088-2.408,0.442-3.268c0.97-2.41,3.172-4.9,6.873-4.9c4.849,0,7.889,2.751,7.889,8.167v22.508h12.291V16.746
		c0-12.38-6.607-18.14-15.422-18.14c-7.229,0-10.399,4.041-12.162,6.791l0.089-5.283H7.183c0.177,3.781,0,39.741,0,39.741H19.454
		L19.454,39.855z"/>
</g>
<rect x="-23.083" y="-23.044" transform="matrix(0.7071 0.7071 -0.7071 0.7071 29.9769 -12.3938)" fill="none" stroke="#000000" stroke-width="5" stroke-miterlimit="10" width="106.065" height="106.066"/>
</svg>
