<?xml version="1.0" encoding="utf-8"?>
<!-- Generator: Adobe Illustrator 16.0.0, SVG Export Plug-In . SVG Version: 6.00 Build 0)  -->
<!DOCTYPE svg PUBLIC "-//W3C//DTD SVG 1.1//EN" "http://www.w3.org/Graphics/SVG/1.1/DTD/svg11.dtd">
<svg version="1.1" id="Layer_1" xmlns="http://www.w3.org/2000/svg" xmlns:xlink="http://www.w3.org/1999/xlink" x="0px" y="0px"
	 width="962.236px" height="222.871px" viewBox="0 0 962.236 222.871" enable-background="new 0 0 962.236 222.871"
	 xml:space="preserve">
<polygon points="843.771,79.438 830.156,79.438 787.044,122.55 830.156,165.66 843.771,165.66 800.661,122.55 "/>
<polygon points="783.75,79.438 770.038,79.438 770.038,93.229 "/>
<rect x="408.914" y="79.439" width="9.628" height="86.222"/>
<polygon points="361.293,156.114 259.004,156.114 259.004,179.913 273.175,165.742 370.921,165.742 370.921,79.438 259.004,79.438 
	259.004,114.476 268.633,114.476 268.633,88.903 361.293,88.903 "/>
<rect x="595.59" y="79.439" width="9.628" height="86.222"/>
<polygon points="731.758,155.057 656.78,79.438 642.463,79.438 642.463,165.66 652.092,165.66 652.092,90.021 727.095,165.66 
	741.386,165.66 741.386,79.438 731.758,79.438 "/>
<polygon points="556.612,79.438 542.996,79.438 506.693,115.741 470.39,79.438 456.773,79.438 499.884,122.55 456.774,165.66 
	470.39,165.66 506.693,129.357 542.996,165.66 556.612,165.66 513.501,122.55 "/>
<path d="M948.764,91.251c-4.13-3.97-9.012-7.147-14.508-9.442c-5.434-2.266-11.301-3.416-17.436-3.416
	c-6.215,0-12.113,1.166-17.531,3.465c-5.491,2.333-10.344,5.546-14.421,9.546c-4.054,3.976-7.304,8.76-9.664,14.222
	c-2.332,5.41-3.518,11.292-3.518,17.481c0,6.018,1.191,11.511,3.641,16.796c2.485,5.367,5.831,10.072,9.938,13.984
	c4.146,3.945,9.02,7.111,14.487,9.409c5.384,2.262,11.126,3.408,17.067,3.408c6.133,0,12.001-1.149,17.439-3.417
	c5.482-2.289,10.354-5.479,14.475-9.483c4.123-4.002,7.453-8.774,9.904-14.187c2.387-5.278,3.598-11.022,3.598-17.067
	c0-6.137-1.213-11.929-3.602-17.221C956.194,99.94,952.871,95.201,948.764,91.251 M916.962,157.298
	c-19.16,0-34.748-15.589-34.748-34.748c0-19.161,15.588-34.749,34.748-34.749s34.748,15.588,34.748,34.749
	C951.71,141.709,936.122,157.298,916.962,157.298"/>
<path d="M27.767,66.068c-0.058,0.064-0.125,0.111-0.182,0.169c-9.077,9.078-15.918,19.307-20.517,30.684
	C2.472,108.3,0.117,119.913,0.004,131.74c-0.113,11.836,2.098,23.475,6.633,34.909c4.551,11.433,11.356,21.696,20.427,30.766
	c8.853,8.847,18.989,15.37,30.429,19.562c11.436,4.194,23.04,6.157,34.816,5.866c11.783-0.289,23.303-2.727,34.565-7.325
	c11.262-4.594,21.262-11.262,29.988-19.998c8.967-8.96,15.773-19.096,20.433-30.424c4.648-11.316,7.065-22.93,7.243-34.822
	c0.168-11.896-1.896-23.553-6.209-34.993c-4.312-11.429-10.939-21.63-19.906-30.595l-66.021,66.016L27.767,66.068z"/>
<polygon fill="#FFED00" points="125.413,97.689 92.401,130.701 60.055,98.36 93.065,65.351 "/>
<polygon fill="#C4007A" points="93.074,65.35 60.063,98.361 27.716,66.022 60.727,33.011 "/>
<rect x="102.41" y="42.129" transform="matrix(-0.7071 0.7071 -0.7071 -0.7071 260.6317 22.0396)" fill="#009DE0" width="46.682" height="45.741"/>
<rect x="70.059" y="9.807" transform="matrix(0.7071 -0.7071 0.7071 0.7071 4.2519 75.6144)" width="46.687" height="45.735"/>
</svg>
