<?xml version="1.0" encoding="utf-8"?>
<!-- Generator: Adobe Illustrator 16.0.0, SVG Export Plug-In . SVG Version: 6.00 Build 0)  -->
<!DOCTYPE svg PUBLIC "-//W3C//DTD SVG 1.1//EN" "http://www.w3.org/Graphics/SVG/1.1/DTD/svg11.dtd">
<svg version="1.1" id="Layer_1" xmlns="http://www.w3.org/2000/svg" xmlns:xlink="http://www.w3.org/1999/xlink" x="0px" y="0px"
	 width="157.071px" height="157.07px" viewBox="-50.33 -48.191 157.071 157.07"
	 enable-background="new -50.33 -48.191 157.071 157.07" xml:space="preserve">
<path d="M65.12,7.446c-2.714,1.206-5.637,2.021-8.698,2.385c3.129-1.873,5.527-4.842,6.659-8.381
	c-2.928,1.738-6.168,2.998-9.618,3.678c-2.764-2.943-6.698-4.784-11.055-4.784c-8.364,0-15.146,6.783-15.146,15.147
	c0,1.186,0.133,2.34,0.391,3.452C15.064,18.31,3.902,12.281-3.569,3.116c-1.304,2.236-2.049,4.84-2.049,7.617
	c0,5.255,2.673,9.892,6.737,12.607c-2.481-0.079-4.819-0.761-6.86-1.896c-0.001,0.063-0.001,0.128-0.001,0.192
	c0,7.338,5.221,13.458,12.151,14.851c-1.271,0.345-2.61,0.531-3.992,0.531c-0.976,0-1.926-0.095-2.85-0.272
	c1.927,6.019,7.521,10.397,14.148,10.519C8.532,51.327,2.003,53.75-5.095,53.75c-1.222,0-2.428-0.073-3.614-0.212
	c6.705,4.299,14.666,6.806,23.219,6.806c27.861,0,43.095-23.082,43.095-43.097c0-0.657-0.013-1.311-0.041-1.963
	C60.521,13.153,63.091,10.483,65.12,7.446z"/>
<rect x="-24.827" y="-22.689" transform="matrix(0.7071 0.7071 -0.7071 0.7071 29.7175 -11.0568)" fill="none" stroke="#000000" stroke-width="5" stroke-miterlimit="10" width="106.066" height="106.066"/>
</svg>
